<svg id="Capa_1" enable-background="new 0 0 512 512" height="512" viewBox="0 0 512 512" width="512" xmlns="http://www.w3.org/2000/svg"><g><path d="m376.5 0c-28.909 0-56.188 9.549-78.888 27.615-3.241 2.579-3.777 7.297-1.198 10.539s7.298 3.778 10.539 1.198c20.017-15.931 44.066-24.352 69.547-24.352 62.033 0 112.5 50.916 112.5 113.5v98.5h-30v-99.5c0-45.491-37.009-82.5-82.5-82.5s-82.5 37.009-82.5 82.5v69.5h-30v-68.5c0-25.18 8.045-49.049 23.266-69.027 2.51-3.295 1.874-8.001-1.42-10.511s-8.001-1.875-10.511 1.42c-17.229 22.613-26.335 49.625-26.335 78.118v68.5h-217.5c-4.142 0-7.5 3.358-7.5 7.5v23.461c-9.247 2.796-16 11.392-16 21.539v30c0 10.147 6.753 18.743 16 21.539v16.922c-9.247 2.796-16 11.392-16 21.539v30c0 10.147 6.753 18.743 16 21.539v16.922c-9.247 2.796-16 11.392-16 21.539v30c0 10.147 6.753 18.743 16 21.539v23.461c0 4.142 3.358 7.5 7.5 7.5h300c4.142 0 7.5-3.358 7.5-7.5v-300c0-4.142-3.358-7.5-7.5-7.5h-22.5v-69.5c0-37.22 30.28-67.5 67.5-67.5s67.5 30.28 67.5 67.5v107c0 4.142 3.358 7.5 7.5 7.5h45c4.142 0 7.5-3.358 7.5-7.5v-106c0-70.855-57.196-128.5-127.5-128.5zm-353.5 249.5c0-4.136 3.364-7.5 7.5-7.5h105c4.136 0 7.5 3.364 7.5 7.5v30c0 4.136-3.364 7.5-7.5 7.5h-105c-4.136 0-7.5-3.364-7.5-7.5zm0 90c0-4.136 3.364-7.5 7.5-7.5h105c4.136 0 7.5 3.364 7.5 7.5v30c0 4.136-3.364 7.5-7.5 7.5h-105c-4.136 0-7.5-3.364-7.5-7.5zm0 90c0-4.136 3.364-7.5 7.5-7.5h105c4.136 0 7.5 3.364 7.5 7.5v30c0 4.136-3.364 7.5-7.5 7.5h-105c-4.136 0-7.5-3.364-7.5-7.5zm301 67.5h-285v-15h96.5c12.407 0 22.5-10.093 22.5-22.5v-30c0-12.407-10.093-22.5-22.5-22.5h-96.5v-15h96.5c12.407 0 22.5-10.093 22.5-22.5v-30c0-12.407-10.093-22.5-22.5-22.5h-96.5v-15h96.5c12.407 0 22.5-10.093 22.5-22.5v-30c0-12.407-10.093-22.5-22.5-22.5h-96.5v-15h285z"/></g></svg>